<svg xmlns="http://www.w3.org/2000/svg" width="24" height="24" fill="none" viewBox="0 0 24 24"><path fill="#1d1d1d" d="m12 20.325-1.104-.992a123 123 0 0 1-4.113-3.877q-1.625-1.62-2.576-2.886-.951-1.263-1.329-2.306A6.2 6.2 0 0 1 2.5 8.149q0-2.13 1.436-3.565T7.5 3.148q1.31 0 2.475.613Q11.14 4.373 12 5.518q.86-1.145 2.025-1.757a5.25 5.25 0 0 1 2.475-.613q2.13 0 3.564 1.436Q21.5 6.019 21.5 8.148q0 1.073-.378 2.116t-1.329 2.306-2.572 2.886q-1.62 1.62-4.117 3.877Zm0-2.027q2.4-2.16 3.95-3.702t2.45-2.68 1.25-2.02T20 8.148q0-1.5-1-2.5t-2.5-1q-1.185 0-2.19.672-1.005.673-1.59 1.87h-1.438q-.597-1.207-1.598-1.874A3.86 3.86 0 0 0 7.5 4.649q-1.49 0-2.494 1T4 8.148q0 .865.35 1.747t1.25 2.02 2.45 2.676T12 18.298"/></svg>