<svg xmlns="http://www.w3.org/2000/svg" width="24" height="24" fill="none" viewBox="0 0 24 24"><g clip-path="url(#clip0_2008_758)"><path fill="#1d1d1d" d="M0 6a6 6 0 0 1 6-6h12a6 6 0 0 1 6 6v12a6 6 0 0 1-6 6H6a6 6 0 0 1-6-6Z"/><path fill="#1d1d1d" fill-rule="evenodd" d="M6 1h12a5 5 0 0 1 5 5v12a5 5 0 0 1-5 5H6a5 5 0 0 1-5-5V6a5 5 0 0 1 5-5M0 6a6 6 0 0 1 6-6h12a6 6 0 0 1 6 6v12a6 6 0 0 1-6 6H6a6 6 0 0 1-6-6Zm17 1.486V5H7v14h2.694v-5.413h6.681v-2.389H9.695V7.485Z" clip-rule="evenodd"/><path fill="#fff" d="M17 5v2.486H9.694v3.713h6.681v2.389H9.695V19H7V5Z"/></g><defs><clipPath id="clip0_2008_758"><path fill="#fff" d="M0 0h24v24H0Z"/></clipPath></defs></svg>