<svg xmlns="http://www.w3.org/2000/svg" width="918" height="138" fill="none" viewBox="0 0 918 138"><path fill="#1d1d1d" fill-rule="evenodd" d="M556.934 0h-26.399v26.225h15.569L529.375 56.9h16.922l10.637-30.676Zm68.279 84.58-18.47-1.935q-18.275-1.936-28.042-11.322-9.67-9.388-9.67-25.354 0-17.613 12.861-27.774 12.86-10.258 35.005-10.258 21.37 0 34.52 10.645 13.248 10.549 15.085 29.128h-24.077q-1.644-10.257-7.93-15.096-6.285-4.935-17.888-4.935-10.831 0-17.309 4.742-6.479 4.74-6.479 12.677 0 6.387 4.545 9.87 4.545 3.387 13.441 4.452l17.212 2.032q20.693 2.322 30.749 11.71 10.057 9.385 10.057 26.32 0 11.324-5.899 19.839-5.898 8.419-16.632 13.064-10.637 4.645-24.947 4.645-23.11 0-37.229-10.935-14.02-11.032-16.052-29.418h24.271q1.838 10.353 8.993 15.386t20.21 5.032q10.54 0 17.019-4.742 6.478-4.838 6.478-12.677 0-13.064-19.822-15.096m215.003-45.867h-16.052v19.354h16.052v48.676q0 9.774 3.771 16.161 3.868 6.387 10.54 9.483 6.769 3.097 15.278 3.097h10.25v-20.322h-7.059q-4.254 0-6.769-2.419-2.417-2.516-2.417-9.29V58.067h16.245V38.713H863.81v-25.16h-23.594ZM918 109.146h-26.398v26.322H918ZM790.243 79.551q0-11.516-5.705-16.741-5.608-5.323-15.181-5.323-5.996 0-10.734 2.71-4.737 2.613-7.542 7.354-2.804 4.645-2.804 10.645v57.289h-23.788V38.714h23.788v14.564q5.24-7.965 12.861-12.435 8.412-5.033 17.212-5.033 15.567 0 25.528 9.968 10.056 9.968 10.056 28.74v60.966h-23.691ZM707.711 65.93h-23.787v69.554h23.787ZM682.878 0h26.398v26.225L698.64 56.9h-16.922l16.728-30.676h-15.568ZM524.965 135.485V73.552q0-11.322-5.415-19.741t-15.085-13.064q-9.572-4.645-22.337-4.645-12.57 0-22.144 4.064-9.572 4.065-15.278 11.419-5.609 7.258-6.285 17.128h24.368q1.933-14.902 20.016-14.902 7.736 0 13.054 4.645 5.415 4.548 5.415 11.903v.387q0 3.58-1.74 5.032-1.741 1.45-6.866 1.838l-25.915 1.742q-14.118.87-21.66 8.129-7.446 7.258-7.446 20.322 0 8.709 4.158 15.483t11.411 10.645 16.535 3.871q10.927 0 19.339-5.032 7.587-4.625 12.184-12.397v15.106ZM501.274 96.68v-3.37l-25.818 1.531q-13.924.871-13.924 11.71 0 5.806 4.641 9.29 4.642 3.483 12.184 3.484 6.479 0 11.7-2.904 5.221-2.999 8.22-8.128 2.997-5.13 2.997-11.613M399.085 79.55q0-11.515-5.125-16.74-5.125-5.323-13.828-5.323-5.415 0-9.766 2.71-4.352 2.613-6.962 7.354-2.514 4.645-2.515 10.645v57.289h-23.69V79.551q0-11.516-5.125-16.741-5.028-5.323-13.731-5.323-5.415 0-9.767 2.71-4.351 2.613-6.865 7.354-2.514 4.645-2.514 10.645v57.289h-23.788V38.714h23.788V52.62q4.927-7.493 11.893-11.777 8.026-5.033 16.342-5.033 14.505 0 23.981 9.968 4.455 4.686 6.816 11.319.523-1.087 1.113-2.126 5.319-9.193 13.345-14.128 8.122-5.033 16.535-5.033 14.505 0 23.981 9.968t9.476 28.74v60.966h-23.594ZM256.697 61.16h5.608V36.774h-4.835q-8.026 0-15.762 5.419-6.439 4.486-11.023 12.273V38.71h-23.788v96.771h23.788V82.256q0-6.194 3.191-10.935 3.288-4.742 9.09-7.452 5.898-2.71 13.731-2.71M96.132 86.712q0-15.387 5.996-26.806 6.091-11.418 16.825-17.709 10.83-6.387 25.238-6.387t25.141 6.387q10.734 6.29 16.729 17.71 6.092 11.418 6.092 26.805 0 15.386-6.092 26.999-5.995 11.516-16.729 17.903t-25.141 6.387q-14.408 0-25.238-6.387t-16.825-17.903q-5.996-11.613-5.996-26.999m71.75 0q0-14.42-6.286-22.354-6.188-7.935-17.405-7.935t-17.599 7.935-6.382 22.354q0 14.613 6.382 22.644 6.382 8.032 17.599 8.032t17.405-8.032q6.286-8.031 6.286-22.644M88.285 31.934V9.58H0V135.48h23.788V86.803h58.985V65.32H23.788V31.934Z" clip-rule="evenodd"/></svg>