<svg xmlns="http://www.w3.org/2000/svg" width="24" height="24" fill="none" viewBox="0 0 24 24"><path fill="#1d1d1d" fill-rule="evenodd" d="M9.528 10.663q1.029 1.028 2.472 1.028t2.472-1.028Q15.5 9.635 15.5 8.191T14.472 5.72Q13.443 4.69 12 4.69T9.528 5.72 8.5 8.19t1.028 2.472M4.5 17.083v2.223H6V17h.003a1 1 0 0 1 .173-.479q.176-.257.478-.42 1.292-.638 2.635-.965a11.4 11.4 0 0 1 5.421 0q1.344.328 2.636.964.301.165.478.422a1 1 0 0 1 .173.479H18v2.307h1.5v-2.223q0-.735-.399-1.36a2.66 2.66 0 0 0-1.066-.963 14.5 14.5 0 0 0-2.991-1.09 12.95 12.95 0 0 0-6.087 0 14.5 14.5 0 0 0-2.991 1.09q-.668.336-1.067.962t-.399 1.36m8.913-7.48A1.93 1.93 0 0 1 12 10.19q-.826.002-1.413-.586A1.93 1.93 0 0 1 10 8.19q0-.825.588-1.412A1.93 1.93 0 0 1 12 6.192q.825 0 1.412.587Q14 7.367 14 8.19t-.588 1.413" clip-rule="evenodd"/></svg>